{
    "accessors" : [
        {
            "bufferView" : 0,
            "componentType" : 5123,
            "count" : 16938,
            "max" : [
                16551
            ],
            "min" : [
                0
            ],
            "type" : "SCALAR"
        },
        {
            "bufferView" : 1,
            "componentType" : 5126,
            "count" : 16552,
            "max" : [
                2.5473978519439697,
                4.292885780334473,
                0.9248785376548767
            ],
            "min" : [
                -2.7397208213806152,
                -0.015145301818847656,
                -0.4660971164703369
            ],
            "type" : "VEC3"
        },
        {
            "bufferView" : 2,
            "componentType" : 5126,
            "count" : 16552,
            "max" : [
                0.999542236328125,
                1.0,
                0.9972228407859802
            ],
            "min" : [
                -0.999969482421875,
                -1.0,
                -0.999420166015625
            ],
            "type" : "VEC3"
        },
        {
            "bufferView" : 3,
            "componentType" : 5126,
            "count" : 16552,
            "max" : [
                1.0,
                1.0,
                1.0,
                1.0
            ],
            "min" : [
                0.000910580968455449,
                0.0,
                0.0,
                1.0
            ],
            "type" : "VEC4"
        }
    ],
    "asset" : {
        "generator" : "Khronos Blender glTF 2.0 exporter",
        "version" : "2.0"
    },
    "bufferViews" : [
        {
            "buffer" : 0,
            "byteLength" : 33876,
            "byteOffset" : 0,
            "target" : 34963
        },
        {
            "buffer" : 0,
            "byteLength" : 198624,
            "byteOffset" : 33876,
            "target" : 34962
        },
        {
            "buffer" : 0,
            "byteLength" : 198624,
            "byteOffset" : 232500,
            "target" : 34962
        },
        {
            "buffer" : 0,
            "byteLength" : 264832,
            "byteOffset" : 431124,
            "target" : 34962
        }
    ],
    "buffers" : [
        {
            "byteLength" : 695956,
            "uri" : "postpose.bin"
        }
    ],
    "materials" : [
        {
            "name" : "Material",
            "pbrMetallicRoughness" : {
                "baseColorFactor" : [
                    0.6400000190734865,
                    0.6400000190734865,
                    0.6400000190734865,
                    1.0
                ],
                "metallicFactor" : 0.0
            }
        }
    ],
    "meshes" : [
        {
            "name" : "Cube",
            "primitives" : [
                {
                    "attributes" : {
                        "COLOR_0" : 3,
                        "NORMAL" : 2,
                        "POSITION" : 1
                    },
                    "indices" : 0,
                    "material" : 0
                }
            ]
        }
    ],
    "nodes" : [
        {
            "mesh" : 0,
            "name" : "Cube"
        }
    ],
    "scene" : 0,
    "scenes" : [
        {
            "name" : "Scene",
            "nodes" : [
                0
            ]
        }
    ]
}
