{
    "accessors" : [
        {
            "bufferView" : 0,
            "componentType" : 5125,
            "count" : 1572864,
            "max" : [
                1572763
            ],
            "min" : [
                0
            ],
            "type" : "SCALAR"
        },
        {
            "bufferView" : 1,
            "componentType" : 5126,
            "count" : 1572764,
            "max" : [
                5.158490180969238,
                3.4058520793914795,
                6.023269176483154
            ],
            "min" : [
                -6.058692932128906,
                0.22456908226013184,
                -5.33481502532959
            ],
            "type" : "VEC3"
        },
        {
            "bufferView" : 2,
            "componentType" : 5126,
            "count" : 1572764,
            "max" : [
                0.8228705525398254,
                0.999969482421875,
                0.982055127620697
            ],
            "min" : [
                -0.999481201171875,
                -0.05069124326109886,
                -0.9323404431343079
            ],
            "type" : "VEC3"
        },
        {
            "bufferView" : 3,
            "componentType" : 5126,
            "count" : 1572764,
            "max" : [
                0.08536206185817719,
                0.8419579863548279,
                0.08267538249492645,
                1.0
            ],
            "min" : [
                -0.9939668774604797,
                -0.9861763119697571,
                -0.19878706336021423,
                1.0
            ],
            "type" : "VEC4"
        },
        {
            "bufferView" : 4,
            "componentType" : 5126,
            "count" : 1572764,
            "max" : [
                1.0,
                1.0
            ],
            "min" : [
                0.0,
                0.0
            ],
            "type" : "VEC2"
        }
    ],
    "asset" : {
        "generator" : "Khronos Blender glTF 2.0 exporter",
        "version" : "2.0"
    },
    "bufferViews" : [
        {
            "buffer" : 0,
            "byteLength" : 6291456,
            "byteOffset" : 0,
            "target" : 34963
        },
        {
            "buffer" : 0,
            "byteLength" : 18873168,
            "byteOffset" : 6291456,
            "target" : 34962
        },
        {
            "buffer" : 0,
            "byteLength" : 18873168,
            "byteOffset" : 25164624,
            "target" : 34962
        },
        {
            "buffer" : 0,
            "byteLength" : 25164224,
            "byteOffset" : 44037792,
            "target" : 34962
        },
        {
            "buffer" : 0,
            "byteLength" : 12582112,
            "byteOffset" : 69202016,
            "target" : 34962
        }
    ],
    "buffers" : [
        {
            "byteLength" : 81784128,
            "uri" : "terrain.bin"
        }
    ],
    "materials" : [
        {
            "name" : "glTF Default Material.001",
            "pbrMetallicRoughness" : {}
        }
    ],
    "meshes" : [
        {
            "name" : "TerrainMesh",
            "primitives" : [
                {
                    "attributes" : {
                        "NORMAL" : 2,
                        "POSITION" : 1,
                        "TANGENT" : 3,
                        "TEXCOORD_0" : 4
                    },
                    "indices" : 0,
                    "material" : 0
                }
            ]
        }
    ],
    "nodes" : [
        {
            "mesh" : 0,
            "name" : "TerrainMesh"
        }
    ],
    "scene" : 0,
    "scenes" : [
        {
            "name" : "Scene",
            "nodes" : [
                0
            ]
        }
    ]
}
